<?xml version="1.0" encoding="utf-8"?>
<?xml-stylesheet type="text/xsl" href="rss1.xsl"?>
<rss version="2.0" xmlns:atom="http://www.w3.org/2005/Atom" xmlns:content="http://purl.org/rss/1.0/modules/content/" xmlns:dc="http://purl.org/dc/elements/1.1/" xmlns:media="http://search.yahoo.com/mrss/">
<channel>
 <title>Getty</title>
 <link>http://www.gettyimg.com/</link>
 <atom:link href="http://www.gettyimg.com/" rel="self" type="application/rss+xml" />

 
                <item>
                <title><![CDATA[【Music Videos】Gusttavo Lima - Balada Boa (Clean)]]></title>
                <link><![CDATA[https://sharemania.us/threads/gusttavo-lima-balada-boa-clean.241105/]]></link>
                <description><![CDATA[<article>
<blockquote class="messageText SelectQuoteContainer ugc baseHtml">
<img src="https://i.ibb.co/thcGByp/Gusttavo-Lima-Balada-Boa-vob-thumbs-2024-03-30-17-14-53.jpg" class="bbCodeImage LbImage" alt="[​IMG]" data-url="https://i.ibb.co/thcGByp/Gusttavo-Lima-Balada-Boa-vob-thumbs-2024-03-30-17-14-53.jpg" style=""> <br>
<br>
<div class="ToggleTriggerAnchor bbCodeSpoilerContainer">
<button type="button" class="button bbCodeSpoilerButton ToggleTrigger Tooltip JsOnly" data-target="> .SpoilerTarget"><span>Spoiler: <span class="SpoilerTitle">MediaInfo</span></span></button>
<div class="SpoilerTarget bbCodeSpoilerText">Gusttavo Lima - Balada Boa.vob<br>
Format : MPEG-PS<br>
File size : 159 MiB<br>
Duration : 3 min 23 s<br>
Overall bit rate mode : Variable<br>
Overall bit rate : 6 546 kb/s<br>
Frame rate : 29.970 FPS<br>
<br>
Video<br>
ID : 224 (0xE0)<br>
Format : MPEG Video<br>
Format version : Version 2<br>
Format profile : Main@Main<br>
Format settings, BVOP : No<br>
Format settings, Matrix : Default<br>
Format settings, GOP : Variable<br>
Duration : 3 min 23 s<br>
Bit rate mode : Variable<br>
Bit rate : 5 968 kb/s<br>
Maximum bit rate : 9 000 kb/s<br>
Width : 720 pixels<br>
Height : 480 pixels<br>
Display aspect ratio : 16:9<br>
Frame rate : 29.970 (30000/1001) FPS<br>
Standard : NTSC<br>
Color space : YUV<br>
Chroma subsampling : 4:2:0<br>
Bit depth : 8 bits<br>
Scan type : Progressive<br>
Compression mode : Lossy<br>
Bits/(Pixel*Frame) : 0.576<br>
Time code of first frame : 00:00:00:00<br>
Time code source : Group of pictures header<br>
GOP, Open/Closed : Open<br>
Stream size : 145 MiB (91%)<br>
<br>
Audio<br>
ID : 189 (0xBD)-128 (0x80)<br>
Format : AC-3<br>
Format/Info : Audio Coding 3<br>
Commercial name : Dolby Digital<br>
Muxing mode : DVD-Video<br>
Duration : 3 min 23 s<br>
Bit rate mode : Constant<br>
Bit rate : 448 kb/s<br>
Channel(s) : 2 channels<br>
Channel layout : L R<br>
Sampling rate : 48.0 kHz<br>
Frame rate : 31.250 FPS (1536 SPF)<br>
Compression mode : Lossy<br>
Stream size : 10.9 MiB (7%)<br>
Service kind : Complete Main</div>
</div><br>
<div class="bbCodeBlock bbCodeVfcHH HiddenContent">
<div class="attribution type">Hidden Content:</div>
<blockquote>You must reply before you can see the hidden data contained here.</blockquote>
</div>
<div class="messageTextEndMarker">&nbsp;</div>
</blockquote>
</article>]]></description>
                <author><![CDATA[DJ-RoGeRs-BS]]></author>
                </item>

                </channel></rss>